<?xml version="1.0" encoding="utf-8"?>
<!-- Generator: Adobe Illustrator 19.0.0, SVG Export Plug-In . SVG Version: 6.00 Build 0)  -->
<svg version="1.1" id="Calque_1" xmlns="http://www.w3.org/2000/svg" xmlns:xlink="http://www.w3.org/1999/xlink" x="0px" y="0px"
	 viewBox="0 0 57 41" style="enable-background:new 0 0 57 41;" xml:space="preserve">
<style type="text/css">
	.st0{fill:#030303;}
</style>
<path id="XMLID_16_" class="st0" d="M53.4,1.1c0,0-5.9,4-9,4c-2.3,0-11.6,0.1-15.9,0.2C24.2,5.3,15,5.1,12.6,5.1c-3.1,0-9-4-9-4
	C1.4-0.2-0.9-0.7,1.3,3C3.5,6.7,7,13.8,12.6,13.8c0.8,0,1.7,0,2.8,0v3.9H9.9c-1.1,0-2,0.9-2,2v1.8c0,1.1,0.9,2,2,2h5.4v15.1
	c0,0,1,1.7,3.9,1.7s3.9-1.7,3.9-1.7V23.6h5.2h0.4h5.2v15.1l0,0c0,0,1,1.7,3.9,1.7c2.9,0,3.9-1.7,3.9-1.7h0V23.6h5.4c1.1,0,2-0.9,2-2
	v-1.8c0-1.1-0.9-2-2-2h-5.4v-3.9c1,0,1.9,0,2.7,0c5.6,0,9.1-7.2,11.3-10.8S55.6-0.2,53.4,1.1z M33.9,17.8h-5.2h-0.4h-5.2v-3.9
	c1.1,0,2.2,0,3.2,0c2.6,0,4.4,0,4.4,0c1,0,2,0,3.2,0V17.8z"/>
</svg>
