<?xml version="1.0" encoding="utf-8"?>
<!-- Generator: Adobe Illustrator 19.0.0, SVG Export Plug-In . SVG Version: 6.00 Build 0)  -->
<svg version="1.1" id="Calque_1" xmlns="http://www.w3.org/2000/svg" xmlns:xlink="http://www.w3.org/1999/xlink" x="0px" y="0px"
	 viewBox="0 0 43 50" style="enable-background:new 0 0 43 50;" xml:space="preserve">
<style type="text/css">
	.st0{fill:#050505;}
</style>
<g id="XMLID_2_">
	<path id="XMLID_4_" class="st0" d="M35.2,14.9C32.7,0.8,21.5,0.4,21.5,0.4S10.2,0.8,7.7,14.9C5.2,29,0.1,30.2,0.1,30.2
		s3.7,13.4,16.2,18.8c0,0-6.4-10.4-6.4-18.2c0-4.2,1.1-11.2,11.5-11.2S33,26.7,33,30.9c0,7.8-6.4,18.2-6.4,18.2
		c12.5-5.4,16.2-18.9,16.2-18.9S37.7,29,35.2,14.9z"/>
	<path id="XMLID_3_" class="st0" d="M21.5,22.9c0,0-7-0.2-8.8,4.8c2,5.6,4.4,12.2,8.8,12.2c4.4,0,6.8-6.6,8.8-12.2
		C28.5,22.7,21.5,22.9,21.5,22.9z"/>
</g>
</svg>
