<?xml version="1.0" encoding="utf-8"?>
<!-- Generator: Adobe Illustrator 19.0.0, SVG Export Plug-In . SVG Version: 6.00 Build 0)  -->
<svg version="1.1" id="Calque_1" xmlns="http://www.w3.org/2000/svg" xmlns:xlink="http://www.w3.org/1999/xlink" x="0px" y="0px"
	 viewBox="0 0 45 42" style="enable-background:new 0 0 45 42;" xml:space="preserve">
<style type="text/css">
	.st0{fill:#030303;}
</style>
<path id="XMLID_41_" class="st0" d="M44.2,41.2c-1.1,1.1-2.8,1.1-3.9,0l-4.7-4.8c-3.5,2.7-7.7,3.2-9.9,0.9l3.8-3.9
	c-1.9-1.9-4.4-4.4-7-7.1c-2.6,2.7-5.1,5.2-7,7.1l3.8,3.9c-2.2,2.3-6.4,1.8-9.9-0.9l-4.7,4.8c-1.1,1.1-2.8,1.1-3.9,0s-1.1-2.9,0-4
	l5.1-5.1c-1.6-3-1.5-6.2,0.3-8.1l3.9,3.9l7-7.1c-3-3.1-5.7-5.8-7-7.1C5.9,9.5,7.5,0,7.5,0l15,15.2L37.5,0c0,0,1.6,9.5-2.6,13.7
	c-1.3,1.3-3.9,4-7,7.1l7,7.1l3.9-3.9c1.8,1.9,1.8,5.1,0.3,8.1l5.1,5.1C45.3,38.3,45.3,40.1,44.2,41.2z"/>
</svg>
