<?xml version="1.0" encoding="utf-8"?>
<!-- Generator: Adobe Illustrator 19.0.0, SVG Export Plug-In . SVG Version: 6.00 Build 0)  -->
<svg version="1.1" id="Calque_1" xmlns="http://www.w3.org/2000/svg" xmlns:xlink="http://www.w3.org/1999/xlink" x="0px" y="0px"
	 viewBox="4 -6 43.4 50" style="enable-background:new 4 -6 43.4 50;" xml:space="preserve">
<path d="M34.5,22c-2,5.6-4.4,12.2-8.8,12.2c-4.4,0-6.8-6.6-8.8-12.2c1.8-5,8.8-4.8,8.8-4.8S32.7,17,34.5,22z M39.5,9.2
	C37-4.9,25.7-5.3,25.7-5.3S14.5-4.9,12,9.2C9.5,23.4,4.4,24.6,4.4,24.6S8,38,20.7,43.4c0,0-6.4-10.4-6.4-18.2
	C14.2,21,15.4,14,25.7,14c10.5,0,11.5,7,11.5,11.2c0,7.8-6.4,18.2-6.4,18.2C43.3,37.9,47,24.5,47,24.5S42,23.3,39.5,9.2z"/>
</svg>
