<?xml version="1.0" encoding="utf-8"?>
<!-- Generator: Adobe Illustrator 19.0.0, SVG Export Plug-In . SVG Version: 6.00 Build 0)  -->
<svg version="1.1" id="Calque_1" xmlns="http://www.w3.org/2000/svg" xmlns:xlink="http://www.w3.org/1999/xlink" x="0px" y="0px"
	 viewBox="7 -6 50 49" style="enable-background:new 7 -6 50 49;" xml:space="preserve">
<path d="M48-6c0,0,3.6,2.7,2.9,9c-0.6,5.4-8.5,7.2-10.7,7.6l-3.1-1.7l-3.3-7.8L32-1.4l-1.9,2.5l-3.3,7.8l-3.1,1.7
	C21.6,10.3,13.6,8.5,13,3C12.4-3.2,16-6,16-6S7.2-5.2,7,5.2c-0.2,10.4,7.7,12.4,7.7,12.4c0.5,3.4,0.3,6,0.3,6
	c8.7,1.4,13.1,10.3,13.1,10.3s-5.5-6.5-9.9-6.2c0.5,2,4.3,9.3,4.3,9.3l9.5,6l9.5-6c0,0,3.8-7.4,4.3-9.3c-4.4-0.3-9.9,6.2-9.9,6.2
	S40.3,25,49,23.5c0,0-0.2-2.6,0.3-6c0,0,7.8-2,7.7-12.4C56.8-5.2,48-6,48-6z M20.6,17.7c1.4-0.5,5.4-0.3,7.3,3.1
	C24.1,21.9,21.2,19,20.6,17.7z M36.1,20.9c1.9-3.5,5.9-3.6,7.3-3.1C42.8,19,39.9,21.9,36.1,20.9z"/>
</svg>
