<?xml version="1.0" encoding="utf-8"?>
<!-- Generator: Adobe Illustrator 19.0.0, SVG Export Plug-In . SVG Version: 6.00 Build 0)  -->
<svg version="1.1" id="Calque_1" xmlns="http://www.w3.org/2000/svg" xmlns:xlink="http://www.w3.org/1999/xlink" x="0px" y="0px"
	 viewBox="5 -7 46 52" style="enable-background:new 5 -7 46 52;" xml:space="preserve">
<path d="M41.7,19.3c2.1,3.2,4.3,6.3,6.4,9.4c-0.9-0.1-1.8-0.2-2.7-0.3c-1.2-0.1-2.5-0.2-3.7-0.4c-2.5-0.4-5-0.9-7.5-1.4
	c-0.2,0-0.4-0.2-0.5-0.4c-1.7-3.2-3.4-6.5-5.1-9.7c0-0.1-0.1-0.1-0.2-0.2c-0.5,0.9-1,1.8-1.4,2.6c-1.3,2.4-2.6,4.9-3.9,7.3
	c-0.1,0.1-0.3,0.3-0.4,0.3c-1.7,0.3-3.4,0.7-5.1,0.9c-1.1,0.2-2.2,0.2-3.3,0.3c-1.6,0.1-3.2,0.3-4.9,0.4c-0.6,0-1.1,0.1-1.8,0.1
	c2.2-3.1,4.4-6.2,6.6-9.3c-3.1-2.2-6.1-4.4-9.2-6.7c3.7-1,7.3-1.9,11-2.8C15,5.8,14.1,2.1,13.1-1.6c3.4,1.7,6.8,3.3,10.2,5
	c1.6-3.4,3.2-6.9,4.9-10.3c1.6,3.5,3.1,7,4.7,10.4c3.4-1.6,6.8-3.2,10.3-4.8c-1,3.7-2,7.4-3.1,11c3.6,1,7.2,2,10.9,3.1
	C47.8,15,44.8,17.1,41.7,19.3z M32.1,28.6c-0.7-1.2-1.3-2.5-2-3.8c-0.5-1-1-1.9-1.6-3c-0.1,0.2-0.1,0.2-0.2,0.3
	c-1.1,2.1-2.3,4.3-3.4,6.4c-0.1,0.2-0.2,0.3-0.5,0.4c-1.8,0.3-3.6,0.6-5.5,1c-0.7,0.1-1.3,0.2-2,0.4c0.1,0.1,0.2,0.2,0.2,0.3
	c1.6,1.7,3.1,3.4,4.7,5c0.3,0.4,0.5,0.7,0.4,1.2c-0.3,1.7-0.5,3.4-0.7,5.2c-0.1,0.7-0.2,1.4-0.3,2.1c0.2-0.1,0.4-0.2,0.5-0.2
	c2.1-1,4.3-2.1,6.4-3.1c0.1-0.1,0.4-0.1,0.5,0c2.2,1.1,4.3,2.1,6.4,3.2c0.1,0.1,0.3,0.1,0.4,0.2c-0.2-1.2-0.3-2.3-0.4-3.4
	c-0.2-1.4-0.4-2.8-0.6-4.2c0-0.3,0-0.4,0.2-0.6c1.4-1.5,2.9-3,4.3-4.5c0.3-0.3,0.6-0.7,0.9-1c-2.5-0.5-5-0.9-7.4-1.4
	C32.4,28.9,32.2,28.7,32.1,28.6z"/>
</svg>
