<?xml version="1.0" encoding="utf-8"?>
<!-- Generator: Adobe Illustrator 19.0.0, SVG Export Plug-In . SVG Version: 6.00 Build 0)  -->
<svg version="1.1" id="Calque_1" xmlns="http://www.w3.org/2000/svg" xmlns:xlink="http://www.w3.org/1999/xlink" x="0px" y="0px"
	 viewBox="4 -2 44 42" style="enable-background:new 4 -2 44 42;" xml:space="preserve">
<path d="M46.1,0C42.5-1.4,39.1-2,36-2c-3.8,0-7.2,1-10,2.6c-0.1-0.1-0.3-0.1-0.4-0.2C22.9-1.1,19.7-2,16-2C12.9-2,9.5-1.4,5.8,0
	L4,0.7l0.2,2c0.5,4.4,1.7,8,3.5,11c1.7,2.9,4,5.1,6.5,6.7c0.1,0,0.1,0.1,0.2,0.1c0,0.1,0,0.2,0,0.3c0,3,0.7,6.1,2.3,9.2
	c1.6,3.1,4.2,6,7.8,8.8L26,40l1.6-1.2c3.6-2.8,6.1-5.8,7.8-8.8c1.6-3.1,2.3-6.2,2.3-9.2c0-0.1,0-0.2,0-0.3c1.2-0.7,2.3-1.6,3.4-2.6
	c1.5-1.4,2.8-3.2,3.9-5.2c1.4-2.8,2.5-6.1,2.9-10l0.2-2L46.1,0z M26,7.2c0.8,0.7,1.7,1.7,2.6,2.8c1.3,1.7,2.5,3.9,3.2,6.1
	c0,0.1,0.1,0.3,0.1,0.4c0.1,0.4,0.2,0.7,0.2,1c-0.3,0.1-0.6,0.2-0.9,0.3c-1.7,0.5-3.5,0.7-5.2,0.8c-1.9,0-4-0.3-5.9-1
	c-0.1,0-0.2-0.1-0.2-0.1c0-0.2,0.1-0.4,0.1-0.5c0.2-0.9,0.5-1.9,0.9-2.9c0-0.1,0.1-0.1,0.1-0.2c1-2.1,2.3-4.1,3.7-5.5
	C25.2,7.9,25.6,7.5,26,7.2z M16.3,12c-0.4,0.8-0.7,1.7-1,2.6c0,0.1-0.1,0.2-0.1,0.3c-0.2-0.2-0.4-0.4-0.7-0.6
	c-1.1-1.1-2.1-2.4-2.9-4C10.8,8.6,10,6.6,9.6,4.1c2.4-0.7,4.5-1,6.4-1c1.6,0,3,0.2,4.3,0.6c0.4,0.1,0.8,0.2,1.1,0.4
	c-1.1,1.1-2.1,2.4-2.9,3.7C17.7,9.1,16.9,10.6,16.3,12z M30.8,27.6c-1,1.9-2.6,3.9-4.8,5.9c-2.3-2-3.8-4-4.8-5.9
	c-0.8-1.6-1.3-3.2-1.6-4.7c0.3,0.1,0.5,0.1,0.8,0.2c1.6,0.3,3.4,0.5,5.3,0.5c0.1,0,0.2,0,0.3,0c0.1,0,0.2,0,0.3,0
	c1.9,0,3.7-0.2,5.3-0.5c0.2-0.1,0.5-0.1,0.7-0.2C32.1,24.5,31.6,26,30.8,27.6z M39.9,11.1c-0.9,1.6-2,2.8-3.2,3.8
	c-0.3-0.9-0.6-1.9-1-2.9c-1.1-2.6-2.7-5.3-4.9-7.6c-0.1-0.1-0.2-0.2-0.4-0.4c1.6-0.6,3.4-1,5.5-1c1.9,0,4.1,0.3,6.4,1
	C41.9,7,41,9.3,39.9,11.1z"/>
</svg>
