<?xml version="1.0" encoding="utf-8"?>
<!-- Generator: Adobe Illustrator 19.0.0, SVG Export Plug-In . SVG Version: 6.00 Build 0)  -->
<svg version="1.1" id="Calque_1" xmlns="http://www.w3.org/2000/svg" xmlns:xlink="http://www.w3.org/1999/xlink" x="0px" y="0px"
	 viewBox="-3.2 4.8 45.4 42.5" style="enable-background:new -3.2 4.8 45.4 42.5;" xml:space="preserve">
<path d="M41.2,46.2c-1.1,1.1-2.8,1.1-3.9,0l-4.7-4.8c-3.5,2.7-7.7,3.2-9.9,0.9l3.8-3.9c-1.9-1.9-4.4-4.4-7-7.1
	c-2.6,2.7-5.1,5.2-7,7.1l3.8,3.9c-2.2,2.3-6.4,1.8-9.9-0.9l-4.7,4.8c-1.1,1.1-2.8,1.1-3.9,0s-1.1-2.9,0-4l5.1-5.1
	c-1.6-3-1.5-6.2,0.3-8.1l3.9,3.9l7-7.1c-3-3.1-5.7-5.8-7-7.1C2.9,14.5,4.5,5,4.5,5l15,15.2L34.5,5c0,0,1.6,9.5-2.6,13.7
	c-1.3,1.3-3.9,4-7,7.1l7,7.1l3.9-3.9c1.8,1.9,1.8,5.1,0.3,8.1l5.1,5.1C42.3,43.3,42.3,45.1,41.2,46.2z"/>
</svg>
