<?xml version="1.0" encoding="utf-8"?>
<!-- Generator: Adobe Illustrator 19.0.0, SVG Export Plug-In . SVG Version: 6.00 Build 0)  -->
<svg version="1.1" id="Calque_1" xmlns="http://www.w3.org/2000/svg" xmlns:xlink="http://www.w3.org/1999/xlink" x="0px" y="0px"
	 viewBox="-1 -7 32 51" style="enable-background:new -1 -7 32 51;" xml:space="preserve">
<path d="M8.3,0.9C11.7-1.2,15-7,15-7s3.3,5.8,6.7,7.9c3.4,2.1,3.6,9.7-1.9,11.6c1-2.5-0.2-4.4-1.6-5.1C16.8,6.7,15,5.2,15,4
	c0,1.2-1.8,2.7-3.2,3.4C10.4,8,9.2,10,10.2,12.4C4.7,10.6,5,2.9,8.3,0.9z M25.6,37.3V20.7c0-2.8-2.3-5-5.1-5h-3.6v-2.9
	c0-1.1-0.9-1.9-1.9-1.9c-1.1,0-1.9,0.9-1.9,1.9v2.9H9.4c-2.8,0-5.1,2.3-5.1,5v16.7H-1c0,0,1.9,6.7,11.4,6.7c1.8,0,4.6,0,4.6,0
	s2.8,0,4.6,0c9.5,0,11.4-6.7,11.4-6.7H25.6z"/>
</svg>
