<?xml version="1.0" encoding="utf-8"?>
<!-- Generator: Adobe Illustrator 19.0.0, SVG Export Plug-In . SVG Version: 6.00 Build 0)  -->
<svg version="1.1" id="Calque_1" xmlns="http://www.w3.org/2000/svg" xmlns:xlink="http://www.w3.org/1999/xlink" x="0px" y="0px"
	 viewBox="1 -6 37 49" style="enable-background:new 1 -6 37 49;" xml:space="preserve">
<path d="M29,9.2c-4,4.7-7.5,9.5-6.8,19.3c0.5,5.2,4.7,12.2,4.7,12.2s-0.3,2.5-4,2.2c-1.7-3.4-3.4-8.7-4.1-13.4L18.7,29
	C2.3,29.6-0.1,15.2,1.4,9.2c3.5-0.5,9.5,0.4,13.8,4c0.4-3.1,1.9-6.2,5.7-8.6C32.5-2.9,33.7-6,33.7-6s14.2,23.8-8.8,33.5
	C24,18.7,26.2,13.9,29,9.2z"/>
</svg>
