<?xml version="1.0" encoding="utf-8"?>
<!-- Generator: Adobe Illustrator 19.0.0, SVG Export Plug-In . SVG Version: 6.00 Build 0)  -->
<svg version="1.1" id="Calque_1" xmlns="http://www.w3.org/2000/svg" xmlns:xlink="http://www.w3.org/1999/xlink" x="0px" y="0px"
	 viewBox="6 -1 48 40" style="enable-background:new 6 -1 48 40;" xml:space="preserve">
<path d="M53.3,15.8c-1.7,3.3-4.5,8.4-6.7,16.5c-2.4,0-16.7,0-16.7,0s-14.3,0-16.7,0c-2.2-8.1-5-13.3-6.7-16.5
	C5,12.5,6.9,13,8.3,13.9C9.6,14.8,30,28.5,30,28.5s20.4-13.7,21.8-14.6C53.1,13,55,12.5,53.3,15.8z M13.4,39h33.2v-4.7H13.4V39z
	 M44.1,15.1l-8.6-7c-1.4,1.3-3.3,2.2-5.4,2.2s-4-0.8-5.4-2.2l-8.6,7L30,24.8L44.1,15.1z M30,8.1c2.5,0,4.5-2,4.5-4.5
	C34.5,1,32.5-1,30-1s-4.5,2-4.5,4.5C25.5,6,27.5,8.1,30,8.1z"/>
</svg>
