<?xml version="1.0" encoding="utf-8"?>
<!-- Generator: Adobe Illustrator 19.0.0, SVG Export Plug-In . SVG Version: 6.00 Build 0)  -->
<svg version="1.1" id="Calque_1" xmlns="http://www.w3.org/2000/svg" xmlns:xlink="http://www.w3.org/1999/xlink" x="0px" y="0px"
	 viewBox="3 -2 41 41" style="enable-background:new 3 -2 41 41;" xml:space="preserve">
<path d="M40.4,24.9c-3.4-0.6-9-3-10.7-5.4c0,2.3,0,7.4,0,7.4s7.5,4.8,9.9,6.4c2.4,1.6,3.2,6.5-2.6,5.5c-5.7-0.9-13.6-3-13.6-3
	s-7.8,2-13.6,3c-5.7,0.9-5-3.9-2.6-5.5c2.4-1.6,9.9-6.4,9.9-6.4s0-5.2,0-7.4C15.6,22,10,24.3,6.6,24.9c-3.4,0.6-5.4-1.7-1.2-3.4
	c4.3-1.6,7.5-4.2,10-8.1c1.9-2.8,3.8-3.9,5.8-4.2c-2.1-0.9-3.5-3-3.5-5.4c0-3.2,2.6-5.9,5.8-5.9c3.2,0,5.8,2.6,5.8,5.9
	c0,2.4-1.5,4.5-3.5,5.4c2,0.3,3.9,1.4,5.8,4.2c2.6,3.9,5.7,6.5,10,8.1C45.9,23.2,43.8,25.6,40.4,24.9z"/>
</svg>
