<?xml version="1.0" encoding="utf-8"?>
<!-- Generator: Adobe Illustrator 19.0.0, SVG Export Plug-In . SVG Version: 6.00 Build 0)  -->
<svg version="1.1" id="Calque_1" xmlns="http://www.w3.org/2000/svg" xmlns:xlink="http://www.w3.org/1999/xlink" x="0px" y="0px"
	 viewBox="-6.5 3.6 43.9 43.9" style="enable-background:new -6.5 3.6 43.9 43.9;" xml:space="preserve">
<path d="M28.9,31.3c0,3.7-2.9,6.6-6.6,6.6c-3.7,0-6.6-2.9-6.6-6.6s2.9-6.6,6.6-6.6C25.9,24.7,28.9,27.6,28.9,31.3z M15.8,4.3
	C4.1,4.3-5.4,13.8-5.4,25.5s9.5,21.2,21.2,21.2c2,0,4-0.3,5.7-0.8c-7.7-0.4-13.9-6.8-13.9-14.6c0-8,6.6-14.6,14.6-14.6
	c7.2,0,13.2,5.1,14.4,12c0.1-1,0.2-2.1,0.2-3.1C36.9,13.8,27.4,4.3,15.8,4.3z"/>
</svg>
