<?xml version="1.0" encoding="utf-8"?>
<!-- Generator: Adobe Illustrator 19.0.0, SVG Export Plug-In . SVG Version: 6.00 Build 0)  -->
<svg version="1.1" id="Calque_1" xmlns="http://www.w3.org/2000/svg" xmlns:xlink="http://www.w3.org/1999/xlink" x="0px" y="0px"
	 viewBox="5 -4 46 46" style="enable-background:new 5 -4 46 46;" xml:space="preserve">
<path d="M28-4C15.3-4,5,6.3,5,19s10.3,23,23,23s23-10.3,23-23S40.7-4,28-4z M28,38.5C17.2,38.5,8.5,29.8,8.5,19
	C8.5,8.2,17.2-0.5,28-0.5c10.8,0,19.5,8.7,19.5,19.5C47.5,29.8,38.8,38.5,28,38.5z M40.1,6.9c-3.1-3.1-7.4-5-12.1-5
	c-4.7,0-9,1.9-12.1,5c-3.1,3.1-5,7.4-5,12.1c0,4.7,1.9,9,5,12.1c3.1,3.1,7.4,5,12.1,5c4.7,0,9-1.9,12.1-5c3.1-3.1,5-7.4,5-12.1
	C45.1,14.3,43.2,10,40.1,6.9z M25.6,5.5h4.8v4.8h-4.8V5.5z M19.3,21.4h-4.8v-4.8h4.8V21.4z M30.4,32.5h-4.8v-4.8h4.8V32.5z
	 M32.6,23.6h-9.1v-9.1h9.1V23.6z M36.7,21.4v-4.8h4.8v4.8H36.7z"/>
</svg>
