<?xml version="1.0" encoding="utf-8"?>
<!-- Generator: Adobe Illustrator 19.0.0, SVG Export Plug-In . SVG Version: 6.00 Build 0)  -->
<svg version="1.1" id="Calque_1" xmlns="http://www.w3.org/2000/svg" xmlns:xlink="http://www.w3.org/1999/xlink" x="0px" y="0px"
	 viewBox="5 -4 45 46" style="enable-background:new 5 -4 45 46;" xml:space="preserve">
<path d="M24.9,17.7l1-1c-0.1,0-0.2,0-0.4,0c-1.4,0-2.6,0.5-3.5,1.4c-0.9,0.9-1.4,2.1-1.4,3.5s0.5,2.6,1.4,3.5
	c0.9,0.9,2.1,1.4,3.5,1.4c1.4,0,2.6-0.5,3.5-1.4c0.8-0.8,1.3-1.9,1.4-3.1l5.1-5.1c0.7,1.4,1.1,3.1,1.1,4.8c0,3-1.2,5.8-3.2,7.8
	c-2,2-4.8,3.2-7.8,3.2c-3,0-5.8-1.2-7.8-3.2c-2-2-3.2-4.8-3.2-7.8c0-3,1.2-5.8,3.2-7.8c2-2,4.8-3.2,7.8-3.2c1.9,0,3.7,0.5,5.2,1.3
	l2.4-2.4C31,8,28.4,7.1,25.6,7.1c-4,0-7.6,1.6-10.2,4.2c-2.6,2.6-4.2,6.2-4.2,10.2c0,4,1.6,7.5,4.2,10.2c2.6,2.6,6.2,4.2,10.2,4.2
	c4,0,7.6-1.6,10.2-4.2C38.4,29,40,25.5,40,21.5c0-2.6-0.7-5.1-2-7.2l3.1-3.1h2.2c1.8,3,2.8,6.6,2.8,10.3c0,5.7-2.3,10.8-6,14.5
	c-3.7,3.7-8.9,6-14.5,6c-5.7,0-10.8-2.3-14.5-6c-3.7-3.7-6-8.8-6-14.5C5,15.8,7.3,10.7,11,7c3.7-3.7,8.9-6,14.5-6
	c4.2,0,8.1,1.3,11.4,3.4v-7.7l4.5,4.5L46.6-4c0.6,0.6,0.7,0.7,1.7,1.7c0.9,0.9,1.1,1.1,1.7,1.6l-5.2,5.2L49.3,9h-7.4h-1.7v0
	l-3.5,3.4l-2.4,2.4L30,19.3L28.3,21c-0.9,0.9-2.4,0.9-3.3,0C24,20.1,24,18.6,24.9,17.7z"/>
</svg>
