<?xml version="1.0" encoding="utf-8"?>
<!-- Generator: Adobe Illustrator 19.0.0, SVG Export Plug-In . SVG Version: 6.00 Build 0)  -->
<svg version="1.1" id="Calque_1" xmlns="http://www.w3.org/2000/svg" xmlns:xlink="http://www.w3.org/1999/xlink" x="0px" y="0px"
	 viewBox="6 -3 48 44" style="enable-background:new 6 -3 48 44;" xml:space="preserve">
<path d="M39.4,33.3L32.7,41L26,33.3c1.6-2,4-3.2,6.7-3.2C35.4,30,37.9,31.3,39.4,33.3z M43.6,7.3C43.1-1.5,33.7-3,33.7-3v7.8v21.5
	c1,0.1,2.1,0.3,3,0.6L43.6,7.3z M21.8,7.2l0,0.1L28.7,27c1-0.3,2-0.5,3-0.6V4.8C25.8-0.9,19.9,2,19.9,2l0.8,2L21.8,7.2z M20.1,8.3
	c-9.3-3-14.1,2-14.1,2l5.6,6.5l11.9,13.7c1-1.1,2.1-2,3.4-2.6L20.1,8.3z M47.4,2.8l-2,5.5l-6.8,19.5c1.3,0.7,2.4,1.6,3.4,2.6
	l11.9-13.7C55.3,8.3,47.4,2.8,47.4,2.8z"/>
</svg>
