<?xml version="1.0" encoding="utf-8"?>
<!-- Generator: Adobe Illustrator 19.0.0, SVG Export Plug-In . SVG Version: 6.00 Build 0)  -->
<svg version="1.1" id="Calque_1" xmlns="http://www.w3.org/2000/svg" xmlns:xlink="http://www.w3.org/1999/xlink" x="0px" y="0px"
	 viewBox="5 -4 46 45" style="enable-background:new 5 -4 46 45;" xml:space="preserve">
<path d="M50.3,29.4c-1.9,5.3-11,9.8-19.5,10.5C22.4,40.5,6.4,39.8,6,35.5c0,0-0.8-1.8,5.1-4.3c4.1-1.8,5.4-1.8,5.6-7.3
	c0.2-5.5-0.8-7.3,1.6-10.8C20.6,9.5,25-1.6,29.6-3.5c4.6-1.9,1.8,2.8,1.1,5.8S29.2,13.6,30.9,16c1.8,2.3,6.1,7.1,7.3,8
	c1.2,0.9,0.6,4-7.5,5.4s-11.9,0-11.9,0s9.1,3.9,17.1,1.3c8-2.6,5.9-5.3,5.9-5.3S52.2,24,50.3,29.4z"/>
</svg>
