<?xml version="1.0" encoding="utf-8"?>
<!-- Generator: Adobe Illustrator 19.0.0, SVG Export Plug-In . SVG Version: 6.00 Build 0)  -->
<svg version="1.1" id="Calque_1" xmlns="http://www.w3.org/2000/svg" xmlns:xlink="http://www.w3.org/1999/xlink" x="0px" y="0px"
	 viewBox="3 -4 42 46" style="enable-background:new 3 -4 42 46;" xml:space="preserve">
<path d="M9.2,15.8C5.4,12.1,3,7,3,1.4C3-0.5,3.3-2.3,3.7-4C8.2,2.3,15.6,6.4,24,6.4c8.4,0,15.8-4.1,20.3-10.4
	C44.7-2.3,45-0.5,45,1.4c0,5.6-2.4,10.7-6.2,14.4c-3.8,3.7-9,6-14.8,6S13,19.5,9.2,15.8z M24,25.4c-5.3,0-10.2-1.6-14.1-4.4L9,32.7
	l8.1-4.6L24,42v0l0,0l0,0v0l6.9-13.9l8.1,4.6L38.1,21C34.2,23.8,29.3,25.4,24,25.4z"/>
</svg>
