<?xml version="1.0" encoding="utf-8"?>
<!-- Generator: Adobe Illustrator 19.0.0, SVG Export Plug-In . SVG Version: 6.00 Build 0)  -->
<svg version="1.1" id="Calque_1" xmlns="http://www.w3.org/2000/svg" xmlns:xlink="http://www.w3.org/1999/xlink" x="0px" y="0px"
	 viewBox="7 -2 50 41" style="enable-background:new 7 -2 50 41;" xml:space="preserve">
<path d="M33.4,23.1l7.3,14.6H22.8l7.2-15L33.4,23.1z M56.7,11.5c-3.5,7.6-6.3,14.3-7.8,17.9h0l-1.1,2.8c-0.1,0.1-0.1,0.2-0.1,0.2
	c0,0,0,0,0,0l-2.3,5.6L43.2,33c-0.1-0.1-0.2-0.3-0.2-0.4l-6.5-15.6c-0.7,0-1.3,0-1.9,0c-2.5,0-4.8-0.2-7.1-0.5L20,32.6
	c0,0.1-0.1,0.2-0.2,0.3l-2.4,5.2l-2-5.4c-0.1-0.1-0.1-0.2-0.2-0.4l-1-2.7l-0.1-0.3L7.1,8.9c-0.3-0.9,0-2,0.9-2.6
	c0.9-0.6,2-0.6,2.9,0h0l0.1,0c0.1,0,0.2,0.1,0.3,0.2c0.3,0.2,0.7,0.4,1.3,0.7c1.1,0.6,2.8,1.3,4.8,2.1c2,0.7,4.4,1.5,7,2l5.5-11.9
	C30.3-1.4,31.2-2,32.3-2c1,0,1.9,0.6,2.3,1.5l5.2,12.6c4.3-0.5,8.8-1.6,13.6-3.6c0.9-0.4,2-0.2,2.8,0.5S57.1,10.7,56.7,11.5z
	 M22.5,15.6c-2.6-0.6-5-1.3-6.9-2.1c-0.6-0.2-1.2-0.5-1.8-0.7l4.3,12.3L22.5,15.6z M34.5,12.4l-2.4-5.9l-2.6,5.6
	C31.1,12.3,32.8,12.4,34.5,12.4z M49.8,14.8c-2.8,0.8-5.5,1.4-8.2,1.8l3.6,8.7C46.4,22.5,48,18.8,49.8,14.8z"/>
</svg>
