<?xml version="1.0" encoding="utf-8"?>
<!-- Generator: Adobe Illustrator 19.0.0, SVG Export Plug-In . SVG Version: 6.00 Build 0)  -->
<svg version="1.1" id="Calque_1" xmlns="http://www.w3.org/2000/svg" xmlns:xlink="http://www.w3.org/1999/xlink" x="0px" y="0px"
	 viewBox="6 2 47 35" style="enable-background:new 6 2 47 35;" xml:space="preserve">
<path d="M52.9,25.8c0.5-5-3.4-9.4-6.6-12.8c-3.2-3.5-6.7-5.5-10.9-7.4c-4.2-1.9-8.7-3-13.2-3.4c-2.3-0.2-4.5-0.2-6.8,0
	C13.2,2.3,11,2.7,8.8,3.5c4.3,1.7,8.3,3,12.2,4.4c0.4,0.1,0.8,0.3,1.2,0.4c-0.4,0-0.7,0-1.1,0c-0.1,0-0.1,0-0.2,0
	c-0.4,0-0.9,0.1-1.3,0.1c-0.1,0-0.2,0-0.3,0c-0.9,0.1-1.9,0.3-2.8,0.5c-0.1,0-0.2,0-0.3,0.1c-0.5,0.1-1,0.2-1.4,0.4
	c-0.1,0-0.1,0-0.2,0.1c-0.4,0.1-0.9,0.3-1.3,0.4c-0.1,0-0.2,0.1-0.3,0.1c-0.5,0.2-1,0.3-1.5,0.5c-0.1,0-0.2,0.1-0.3,0.1
	c-0.5,0.2-0.9,0.4-1.4,0.6c-0.1,0-0.1,0.1-0.2,0.1C9,11.5,8.5,11.8,8,12c-0.1,0.1-0.2,0.1-0.3,0.2C7.1,12.5,6.5,12.7,6,13
	c0.1,0.5,0.3,1,0.4,1.6c0,0.2,0.1,0.3,0.1,0.5c0.1,0.4,0.2,0.7,0.3,1c0.1,0.2,0.1,0.3,0.2,0.5c0.1,0.3,0.2,0.7,0.3,1
	c0.1,0.1,0.1,0.3,0.2,0.4c0.2,0.4,0.3,0.8,0.5,1.2c0,0,0,0.1,0.1,0.1c0.2,0.4,0.4,0.9,0.6,1.3c0.1,0.1,0.1,0.2,0.2,0.4
	c0.1,0.3,0.3,0.6,0.4,0.9c0.1,0.1,0.1,0.3,0.2,0.4c0.1,0.3,0.3,0.5,0.4,0.8c0.1,0.1,0.1,0.2,0.2,0.4c0.2,0.3,0.4,0.6,0.5,0.9
	c0,0.1,0.1,0.1,0.1,0.2c0.2,0.4,0.5,0.7,0.7,1c0.1,0.1,0.1,0.2,0.2,0.3c0.2,0.2,0.4,0.5,0.5,0.7c0.1,0.1,0.2,0.2,0.2,0.3
	c0.2,0.2,0.3,0.4,0.5,0.6c0.1,0.1,0.2,0.2,0.2,0.3c0.2,0.2,0.4,0.5,0.6,0.7c0.1,0.1,0.1,0.1,0.2,0.2c0.3,0.3,0.5,0.6,0.8,0.8
	c0.1,0.1,0.1,0.1,0.2,0.2c0.2,0.2,0.4,0.4,0.6,0.6c0.1,0.1,0.2,0.2,0.3,0.2c0.2,0.2,0.4,0.3,0.6,0.5c0.1,0.1,0.2,0.2,0.3,0.2
	c0.2,0.2,0.4,0.3,0.6,0.5c0.1,0,0.1,0.1,0.2,0.2c0.3,0.2,0.6,0.4,0.9,0.6c0,0,0.1,0.1,0.2,0.1c0.2,0.2,0.5,0.3,0.7,0.5
	c0.1,0.1,0.2,0.1,0.3,0.2c0.2,0.1,0.4,0.2,0.6,0.4c0.1,0.1,0.2,0.1,0.3,0.2c0.2,0.1,0.4,0.2,0.7,0.3c0.1,0,0.2,0.1,0.2,0.1
	c0.3,0.1,0.6,0.3,0.9,0.4c0,0,0.1,0,0.1,0c0.3,0.1,0.6,0.2,0.8,0.3c0.1,0,0.2,0.1,0.3,0.1c0.2,0.1,0.4,0.2,0.7,0.2
	c0.1,0,0.2,0.1,0.3,0.1c0.2,0.1,0.5,0.1,0.7,0.2c0.1,0,0.2,0.1,0.3,0.1c0.6,0.2,1.3,0.3,1.9,0.5c0.1,0,0.2,0,0.3,0.1
	c0.2,0,0.5,0.1,0.7,0.1c0.1,0,0.2,0,0.3,0.1c0.2,0,0.5,0.1,0.7,0.1c0.1,0,0.2,0,0.3,0c0.3,0,0.6,0.1,0.9,0.1c0,0,0,0,0,0
	c0.3,0,0.6,0.1,1,0.1c0.1,0,0.2,0,0.3,0c0.2,0,0.5,0,0.7,0c0.1,0,0.2,0,0.3,0c0.2,0,0.4,0,0.7,0c0.1,0,0.1,0,0.2,0c0,0,0.1,0,0.1,0
	c0.4,0,0.7,0,1.1,0c0.1,0,0.1,0,0.2,0c0.3,0,0.6,0,1-0.1c0.1,0,0.1,0,0.2,0c0.4,0,0.7-0.1,1.1-0.1c0.1,0,0.1,0,0.2,0
	c0.3,0,0.6-0.1,0.9-0.1c0.1,0,0.1,0,0.2,0c0.3,0,0.7-0.1,1-0.2c0.1,0,0.1,0,0.2,0c0.3-0.1,0.6-0.1,0.9-0.2c0.1,0,0.1,0,0.2,0
	c0.3-0.1,0.7-0.1,1-0.2c0.1,0,0.1,0,0.2,0c0.3-0.1,0.6-0.1,0.9-0.2c0,0,0.1,0,0.1,0c0.3-0.1,0.6-0.2,0.9-0.3c0.1,0,0.1,0,0.2-0.1
	c0.3-0.1,0.5-0.2,0.8-0.3c0,0,0.1,0,0.1,0c0.3-0.1,0.6-0.2,0.9-0.3c0.1,0,0.1,0,0.2-0.1c0.3-0.1,0.5-0.2,0.8-0.3c0,0,0,0,0.1,0
	c0.3-0.1,0.5-0.2,0.8-0.4c0.1,0,0.1-0.1,0.2-0.1c0.2-0.1,0.5-0.2,0.7-0.4c0,0,0,0,0,0c0.2-0.1,0.5-0.2,0.7-0.4
	c0.1,0,0.1-0.1,0.2-0.1c0.2-0.1,0.4-0.3,0.6-0.4c0,0,0,0,0,0c-0.1-0.3-0.1-0.7-0.2-1c0-0.1,0-0.2-0.1-0.3c-0.1-0.3-0.2-0.6-0.2-0.9
	c0-0.1,0-0.2-0.1-0.2c-0.1-0.4-0.2-0.8-0.4-1.2c0-0.1-0.1-0.2-0.1-0.2c-0.1-0.3-0.2-0.7-0.4-1c0-0.1-0.1-0.2-0.1-0.3
	c-0.3-0.8-0.7-1.7-1.2-2.5c0-0.1-0.1-0.2-0.1-0.3c-0.2-0.3-0.4-0.7-0.6-1.1c0-0.1-0.1-0.1-0.1-0.2c-0.3-0.4-0.5-0.9-0.8-1.3
	c0,0-0.1-0.1-0.1-0.1c-0.2-0.4-0.5-0.8-0.8-1.2c-0.1-0.1-0.1-0.2-0.2-0.2c-0.5-0.7-1.1-1.4-1.7-2.1c1.6,1,3.1,2.2,4.7,3.4
	C49.6,22.9,50.8,24.5,52.9,25.8z M26.9,31.9c-2.3-3.4-1.3-11.2,1.4-18.7c2.8,0.7,5.2,2,7.4,3.5C33.6,23.5,30.4,30.3,26.9,31.9z"/>
</svg>
