<?xml version="1.0" encoding="utf-8"?>
<!-- Generator: Adobe Illustrator 19.0.0, SVG Export Plug-In . SVG Version: 6.00 Build 0)  -->
<svg version="1.1" id="Calque_1" xmlns="http://www.w3.org/2000/svg" xmlns:xlink="http://www.w3.org/1999/xlink" x="0px" y="0px"
	 viewBox="1 -7 38 51" style="enable-background:new 1 -7 38 51;" xml:space="preserve">
<path d="M38,26.5L29.8,9.3C28.5,6.6,26.5,1.8,24-0.8c-0.1-0.2-0.3-0.3-0.4-0.5c-4.6-5.1-14.7-7.4-18-4.5C2.4-2.8,3.5,7,7.9,12.3l0,0
	c1.6,2,3.3,4.3,5.5,5.8l6.2,4.4c-0.6,0.2-1.3,0.4-1.9,0.6l-5.8,1.8l-5.7,1.9l-3.9,1.3c-1.1,0.4-1.8,1.8-0.4,2.6L5,32.5
	c1.7,1,3.4,2,5.1,2.9l5.1,2.9c3.4,1.9,6.9,3.8,10.4,5.6c0.2,0.1,0.5,0.1,0.7-0.1c0.2-0.2,0.2-0.6,0-0.8c-2.9-2.7-5.8-5.3-8.7-7.9
	l-3.4-3l5.3-0.8c2-0.3,4-0.6,6-0.9l6-0.7l5.4-0.6C38.6,28.8,38.7,27.8,38,26.5z M21.4,16l-8.9-6.9c-1.2-1-1.1-1.1-2.2-2.5
	C8.5,4.3,7.9-0.2,9.4-1.5c1.5-1.3,5.8-0.2,8,1.9c1.3,1.2,2.1,2.4,2.4,3.1l4,7.5l-5.6-2.5L21.4,16z"/>
</svg>
