<?xml version="1.0" encoding="utf-8"?>
<!-- Generator: Adobe Illustrator 19.0.0, SVG Export Plug-In . SVG Version: 6.00 Build 0)  -->
<svg version="1.1" id="Calque_1" xmlns="http://www.w3.org/2000/svg" xmlns:xlink="http://www.w3.org/1999/xlink" x="0px" y="0px"
	 viewBox="10 -2 55 41" style="enable-background:new 10 -2 55 41;" xml:space="preserve">
<path d="M39.4,28.4c-0.6,0.8-1.1,1.6-1.8,2.4c-0.2,0.2-0.2,0.2-0.3,0c-0.7-0.9-1.4-1.8-2-2.7c-0.5-0.8-1-1.6-1.5-2.4
	c-0.7-1.3-1.3-2.7-1.9-4.1c-0.4-1.3-0.8-2.6-1-3.9c-0.1-0.7-0.2-1.5-0.2-2.2c0-0.3,0-0.7,0-1c0-1.2,0.1-2.5,0.4-3.7
	c0.3-1.8,0.9-3.5,1.6-5.2c0.7-1.6,1.5-3,2.4-4.4c0.4-0.6,0.8-1.2,1.2-1.8c0.3-0.4,0.6-0.8,0.9-1.2c0.2-0.2,0.2-0.2,0.3,0
	c1.1,1.4,2.1,2.9,3.1,4.4c0.6,1,1.1,2,1.5,3c0.5,1.1,0.9,2.3,1.2,3.6c0.3,1.2,0.5,2.3,0.6,3.5c0.1,0.6,0.1,1.2,0.1,1.8
	c0,1.6-0.2,3.2-0.6,4.8c-0.5,2-1.2,3.8-2,5.5C40.9,26.1,40.2,27.3,39.4,28.4z M18.2,15.8c0.1,1,0.2,2,0.4,2.9c0.4,1.8,1,3.5,1.8,5.1
	c0.8,1.5,1.8,2.8,3.1,3.8c1,0.9,2.2,1.6,3.4,2.2c1.5,0.7,3.1,1.3,4.8,1.6c0.8,0.2,1.5,0.3,2.3,0.4c0.4,0.1,0.8,0.1,1.2,0.1
	c-0.2-0.2-0.4-0.5-0.6-0.7c-0.4-0.5-0.9-1-1.3-1.6c-0.7-0.9-1.3-1.8-1.8-2.7c-0.6-1-1.1-2-1.6-3.1c-0.5-1.2-0.9-2.5-1.1-3.8
	c-0.2-1-0.3-2.1-0.3-3.2c0-0.4,0-0.7,0-1.1s0-0.7,0.1-1.1c0-0.4,0.1-0.7,0.1-1.1c0-0.1,0-0.2-0.1-0.3c-0.1-0.1-0.3-0.2-0.4-0.2
	c-1.2-0.8-2.6-1.3-3.9-1.8c-1.2-0.4-2.3-0.6-3.5-0.8c-0.7-0.1-1.5-0.2-2.2-0.3c-0.2,0-0.2,0-0.3,0.2c-0.1,0.5-0.1,1-0.1,1.5
	c0,1,0,1.9,0,2.9C18.1,15.1,18.1,15.4,18.2,15.8z M41.6,29.7c-0.5,0.7-1.1,1.4-1.7,2.1c0,0-0.1,0.1-0.1,0.1c0.5,0,1-0.1,1.5-0.2
	c1.3-0.2,2.6-0.5,3.8-0.9c1.5-0.5,3-1.1,4.4-2c1-0.6,1.8-1.3,2.6-2.1c0.4-0.4,0.7-0.8,1.1-1.2c0.6-0.7,1.1-1.5,1.5-2.3
	c0.7-1.3,1.1-2.7,1.5-4.1c0.2-1,0.4-2,0.5-3.1c0.1-0.6,0.1-1.3,0.1-1.9c0-0.7,0-1.5,0-2.2c0-0.4-0.1-0.9-0.1-1.3c0-0.1,0-0.2,0-0.3
	c0-0.1-0.1-0.2-0.2-0.1c-0.1,0-0.2,0-0.3,0c-0.8,0.1-1.6,0.2-2.4,0.3c-1.6,0.3-3.1,0.7-4.6,1.3c-1,0.4-1.9,0.9-2.8,1.5
	c-0.2,0.1-0.2,0.2-0.2,0.4c0.2,0.9,0.2,1.8,0.2,2.7c0,0.1,0,0.2,0,0.3c0,0.2,0,0.4,0,0.5c0,0.5-0.1,1-0.1,1.4
	c-0.1,0.8-0.3,1.6-0.5,2.4c-0.3,1.1-0.7,2.2-1.1,3.2c-0.4,0.9-0.9,1.8-1.3,2.6C42.9,28,42.3,28.9,41.6,29.7z M64.9,30.1
	c-0.2-0.2-0.4-0.3-0.7-0.5c-1.3-0.8-2.6-1.6-4-2.3c-1.2-0.5-2.4-1-3.7-1.3c-0.3-0.1-0.3-0.1-0.4,0.2c-0.4,0.6-0.9,1.3-1.4,1.8
	c-0.7,0.7-1.4,1.5-2.3,2.1c-1,0.7-2.1,1.4-3.2,1.9c-1.3,0.6-2.6,1-4,1.4c-1.1,0.3-2.1,0.5-3.2,0.6c-0.9,0.1-1.8,0.2-2.7,0.3
	c-0.2,0-0.4,0-0.6,0.1c0,0.1,0.1,0.1,0.1,0.1c0.3,0.2,0.7,0.5,1,0.7c1,0.7,2.1,1.3,3.2,1.8c1.4,0.7,2.9,1.2,4.4,1.6
	c1.1,0.2,2.2,0.4,3.3,0.4c0.6,0,1.1,0,1.7-0.1c1.1-0.1,2.1-0.4,3.2-0.8c1.4-0.5,2.7-1.3,3.9-2.2c1-0.7,1.9-1.5,2.7-2.4
	c0.6-0.6,1.2-1.3,1.7-1.9c0.3-0.4,0.6-0.8,0.9-1.2C65,30.3,65,30.2,64.9,30.1z M33,34.1c-1.1-0.2-2.2-0.4-3.2-0.6
	c-1.4-0.4-2.7-0.8-4-1.4c-1.1-0.5-2.2-1.2-3.2-1.9c-0.8-0.6-1.6-1.3-2.3-2.1c-0.5-0.6-1-1.2-1.4-1.8c-0.2-0.2-0.2-0.2-0.4-0.2
	c-1.3,0.3-2.5,0.8-3.7,1.3c-1.4,0.6-2.7,1.4-4,2.3c-0.2,0.1-0.4,0.3-0.7,0.5c-0.2,0.1-0.2,0.1-0.1,0.3c0.3,0.4,0.6,0.8,0.9,1.2
	c0.5,0.7,1.1,1.3,1.7,1.9c0.8,0.9,1.7,1.7,2.7,2.4c1.2,0.9,2.5,1.7,3.9,2.2c1,0.4,2.1,0.7,3.2,0.8c0.6,0.1,1.1,0.1,1.7,0.1
	c1.1,0,2.2-0.1,3.3-0.4c1.5-0.3,3-0.9,4.4-1.6c1.1-0.5,2.2-1.2,3.2-1.8c0.3-0.2,0.7-0.5,1-0.7c0,0,0.1,0,0.1-0.1
	c-0.2,0-0.4,0-0.6-0.1C34.8,34.3,33.9,34.2,33,34.1z"/>
</svg>
