<?xml version="1.0" encoding="utf-8"?>
<!-- Generator: Adobe Illustrator 19.0.0, SVG Export Plug-In . SVG Version: 6.00 Build 0)  -->
<svg version="1.1" id="Calque_1" xmlns="http://www.w3.org/2000/svg" xmlns:xlink="http://www.w3.org/1999/xlink" x="0px" y="0px"
	 viewBox="11 -2 57 41" style="enable-background:new 11 -2 57 41;" xml:space="preserve">
<path d="M65.6,8.7c-0.6-0.8-1.4-1.4-2.2-2l-0.6-5c0-0.3-0.2-0.5-0.5-0.5s-0.5,0-0.7,0.2l-3,3.9c0,0-0.1,0-0.1,0h0
	c-1.8,0-3.6,0.6-5,1.5c-0.2-0.3-0.4-0.6-0.6-0.9C52,4.8,51,4,49.7,3.4l-1.2-4.9C48.5-1.8,48.3-2,48-2c-0.3,0-0.5,0.1-0.6,0.3
	l-2.6,4.2c-1.7,0.2-3.3,0.9-4.7,1.9c-0.3,0.3-0.6,0.5-0.9,0.8C39,5,38.7,4.7,38.4,4.4c-1.3-1-2.9-1.7-4.7-1.9l-2.6-4.2
	C31-1.9,30.8-2,30.5-2c-0.3,0-0.5,0.2-0.5,0.5l-1.2,4.9c-1.2,0.6-2.3,1.5-3.1,2.5c-0.2,0.3-0.4,0.6-0.6,0.9c-1.5-1-3.2-1.5-5-1.5h0
	c0,0-0.1,0-0.1,0l-3-3.9c-0.2-0.2-0.4-0.3-0.7-0.2s-0.4,0.3-0.4,0.5l-0.6,5c-0.8,0.5-1.6,1.2-2.2,2c-1.3,1.6-2,3.5-2,5.6
	c0,0.6,0.1,1.3,0.2,1.9c0.5,2.1,1.6,3.9,3.2,5.1s3.5,2,5.6,2c0.6,0,1.3-0.1,1.9-0.2h0c1.3-0.3,2.6-0.9,3.6-1.7
	c1.3,1.4,3.7,4.4,3.1,7.1c-0.8,3.7-3.9,2.3-3.9,5.7c0,3.4,3.5,3.9,5.6,3.9c1.1,0,4.1,0,6.8,0c2.4,0,4.4,0,4.4,0c2.7,0,5.7,0,6.8,0
	c2,0,5.6-0.4,5.6-3.9c0-3.4-3.1-2-3.9-5.7c-0.6-2.7,1.8-5.7,3.1-7.1c1,0.8,2.2,1.4,3.6,1.7c0.7,0.1,1.3,0.2,1.9,0.2
	c2.1,0,4.1-0.7,5.6-2s2.7-3,3.2-5.1v0c0.1-0.6,0.2-1.3,0.2-1.9C67.5,12.2,66.8,10.2,65.6,8.7z M23.2,16.8c-0.6,0.7-1.3,1.2-2.3,1.4
	c-0.3,0.1-0.6,0.1-0.9,0.1c-0.9,0-1.8-0.3-2.5-0.9s-1.2-1.3-1.4-2.3C16,14.9,16,14.6,16,14.3c0-0.9,0.3-1.8,0.9-2.5s1.3-1.2,2.3-1.4
	h0c0.3-0.1,0.6-0.1,0.9-0.1c0.9,0,1.8,0.3,2.5,0.9c0.7,0.6,1.2,1.3,1.4,2.3C24,13.7,24,14,24,14.3C24,15.2,23.7,16.1,23.2,16.8z
	 M35.9,14c-0.6,0.7-1.3,1.2-2.3,1.4c-0.3,0.1-0.6,0.1-0.9,0.1c-0.9,0-1.8-0.3-2.5-0.9s-1.2-1.3-1.4-2.3c-0.1-0.3-0.1-0.6-0.1-0.9
	c0-0.9,0.3-1.8,0.9-2.5c0.6-0.7,1.3-1.2,2.3-1.4h0c0.3-0.1,0.6-0.1,0.9-0.1c0.9,0,1.8,0.3,2.5,0.9s1.2,1.3,1.4,2.3
	c0.1,0.3,0.1,0.6,0.1,0.9C36.8,12.4,36.5,13.3,35.9,14z M49.7,12.4c-0.2,1-0.7,1.7-1.4,2.3s-1.6,0.9-2.5,0.9c-0.3,0-0.6,0-0.9-0.1
	c-1-0.2-1.7-0.7-2.3-1.4s-0.9-1.6-0.9-2.5c0-0.3,0-0.6,0.1-0.9c0.2-1,0.7-1.7,1.4-2.3c0.7-0.6,1.6-0.9,2.5-0.9c0.3,0,0.6,0,0.8,0.1
	h0c1,0.2,1.7,0.7,2.3,1.4c0.6,0.7,0.9,1.6,0.9,2.5C49.8,11.8,49.8,12.1,49.7,12.4z M62.5,15.1c-0.2,1-0.7,1.7-1.4,2.3
	c-0.7,0.6-1.6,0.9-2.5,0.9c-0.3,0-0.6,0-0.9-0.1c-0.9-0.2-1.7-0.7-2.3-1.4c-0.6-0.7-0.9-1.6-0.9-2.5c0-0.3,0-0.6,0.1-0.9v0
	c0.2-0.9,0.7-1.7,1.4-2.3s1.6-0.9,2.5-0.9c0.3,0,0.6,0,0.8,0.1h0c1,0.2,1.7,0.7,2.3,1.4c0.6,0.7,0.9,1.6,0.9,2.5
	C62.5,14.6,62.5,14.9,62.5,15.1z"/>
</svg>
