<?xml version="1.0" encoding="utf-8"?>
<!-- Generator: Adobe Illustrator 19.0.0, SVG Export Plug-In . SVG Version: 6.00 Build 0)  -->
<svg version="1.1" id="Calque_1" xmlns="http://www.w3.org/2000/svg" xmlns:xlink="http://www.w3.org/1999/xlink" x="0px" y="0px"
	 viewBox="4 -7 44 51" style="enable-background:new 4 -7 44 51;" xml:space="preserve">
<path d="M47.9,2.3c-0.2-0.3-0.5-0.4-0.8-0.4l-8.8,1.3l0.6-9.5c0-0.3-0.2-0.6-0.6-0.7c-0.3-0.1-0.7,0-0.9,0.3l-6,5.1
	C31.2-1.8,31-2,30.7-2.2c-1-0.7-2.5-1.3-4.7-1.3c-2.2,0-3.7,0.6-4.7,1.3C21-2,20.8-1.8,20.6-1.6l-6-5.1C14.3-6.9,14-7,13.7-7
	c-0.3,0.1-0.5,0.4-0.6,0.7l0.6,9.5L4.9,1.9C4.6,1.9,4.3,2,4.1,2.3S4,2.9,4.1,3.2l5.1,7.3L5,12.4c-0.3,0.1-0.5,0.4-0.5,0.7
	c0,0.3,0.2,0.6,0.5,0.7l3.6,1.5c-0.2,0.3-0.5,0.6-0.8,0.9c-0.4,0.5-0.8,1.1-1.2,1.8c-0.3,0.7-0.6,1.4-0.6,2.2c0,0.7,0.2,1.4,0.6,2.1
	C7,22.6,7.2,22.8,7.5,23c0.4,0.2,0.8,0.4,1.2,0.5s0.9,0.1,1.4,0.1c0.5,0,1.1,0,1.6-0.1L8.8,29c-0.1,0.3-0.1,0.6,0.1,0.8
	c0.2,0.2,0.5,0.3,0.8,0.3l6.1-1.6c-0.1,0.5-0.2,1.1-0.2,1.6c-0.2,1.1-0.3,2-0.3,2.6c0,0.1,0,0.2,0,0.3c0,0.7,0.1,1.4,0.3,2.1
	c0.3,1,0.7,2.1,1.1,3.1c0.4,1,0.8,1.8,1.1,2.5c0.4,1,0.9,1.8,1.7,2.5c0.8,0.7,1.8,1.1,3,1.1c0.3,0,0.5,0,0.8-0.1
	c0.7-0.1,1.2-0.3,1.7-0.6c0.3-0.2,0.6-0.5,0.8-0.8c0-0.1,0.1-0.1,0.1-0.2c0.1,0.2,0.2,0.3,0.4,0.5c0.3,0.3,0.6,0.5,1,0.7
	s0.8,0.3,1.3,0.4c0.3,0,0.5,0.1,0.8,0.1c1.2,0,2.2-0.4,3-1.1c0.8-0.7,1.4-1.5,1.7-2.5c0.3-0.9,1-2.1,1.5-3.5
	c0.3-0.7,0.5-1.4,0.7-2.1c0.2-0.7,0.3-1.4,0.3-2.1c0-0.1,0-0.2,0-0.3c0-0.6-0.1-1.6-0.3-2.6c-0.1-0.5-0.2-1-0.2-1.6l6.1,1.6
	c0.3,0.1,0.6,0,0.8-0.3c0.2-0.2,0.2-0.6,0.1-0.8l-2.8-5.5c0.6,0.1,1.1,0.1,1.6,0.1c0.6,0,1.2-0.1,1.8-0.2c0.3-0.1,0.5-0.2,0.8-0.4
	c0.2-0.2,0.5-0.4,0.6-0.6c0.4-0.7,0.6-1.4,0.6-2.1c0-0.8-0.2-1.6-0.6-2.2c-0.5-1-1.2-1.9-1.8-2.6c-0.1-0.1-0.1-0.1-0.2-0.2l3.6-1.5
	c0.3-0.1,0.5-0.4,0.5-0.7c0-0.3-0.2-0.6-0.5-0.7l-4.2-1.9l5.1-7.3C48,2.9,48,2.6,47.9,2.3z M38.6,20c-2.5-1-4-1.7-4.7-2.4
	c-0.5-0.5-1.7-1.5-2.6-2.3c-0.2,1-0.7,2.4-1.5,3.9c1.4,1.4,2.8,8.7,3.2,12c0.4,3.3-1.8,6.7-2.4,8.2c-0.6,1.5-2.2,2.6-1.8-4.5
	c0.2-3.6,0.8-2.1,0.2-3.6C28.3,29.9,26,26,26,26s-2.3,3.9-2.9,5.4c-0.6,1.5,0,0,0.2,3.6c0.4,7.1-1.2,6-1.8,4.5
	c-0.6-1.6-2.8-4.9-2.4-8.2s1.8-10.6,3.2-12c-0.9-1.5-1.3-2.9-1.6-3.8c-0.9,0.8-2,1.8-2.6,2.3c-0.7,0.7-2.3,1.4-4.7,2.4
	s-5.9,1.7-3.4-0.7c2.5-2.4,5.4-4.2,5.4-4.2s1.6-4.2,3.5-6.3c1.3-1.5,3.5-1.3,4.8-1c-0.7-0.8-1.1-1.8-1.1-3c0-2.3,1.6-4.2,3.5-4.2
	c1.9,0,3.5,1.9,3.5,4.2c0,1.2-0.4,2.2-1.1,3c1.2-0.3,3.5-0.5,4.8,1c1.8,2.1,3.5,6.3,3.5,6.3s2.9,1.8,5.4,4.2
	C44.6,21.8,41.1,21,38.6,20z"/>
</svg>
