<?xml version="1.0" encoding="utf-8"?>
<!-- Generator: Adobe Illustrator 19.0.0, SVG Export Plug-In . SVG Version: 6.00 Build 0)  -->
<svg version="1.1" id="Calque_1" xmlns="http://www.w3.org/2000/svg" xmlns:xlink="http://www.w3.org/1999/xlink" x="0px" y="0px"
	 viewBox="1 -4 37 45" style="enable-background:new 1 -4 37 45;" xml:space="preserve">
<path d="M38,31.1l-1.3,0.1l-2.8-0.8l-3.3-7l-11.7-2.8l2.9,4.1l7.4,3.7L33.3,41c0,0-1.9-1.2-4.3-1.2c-1-4.5-3.3-6.2-5.6-6.6l-8.1,3.9
	L2.2,36.6l4.9-6.6c0.1-1.5-0.1-3.2-0.6-5c-2.8-10.9,5-17.8,11.7-18.8c6.7-1,14,2.2,15.3,9.1C34.9,22.3,38,31.1,38,31.1z M4.9,25.5
	C1.6,16.9,6.1,7.4,14.7,4.2c6-2.2,12.5-0.8,17,3.2l4.2-8.2c0,0-25.3-11-33.3,7.4C-2,19.5,4.9,25.5,4.9,25.5z"/>
</svg>
