<?xml version="1.0" encoding="utf-8"?>
<!-- Generator: Adobe Illustrator 19.0.0, SVG Export Plug-In . SVG Version: 6.00 Build 0)  -->
<svg version="1.1" id="Calque_1" xmlns="http://www.w3.org/2000/svg" xmlns:xlink="http://www.w3.org/1999/xlink" x="0px" y="0px"
	 viewBox="1 -6 38 49" style="enable-background:new 1 -6 38 49;" xml:space="preserve">
<path d="M39,23c0,0-1.7,12.7-15.5,10.5v6.4c0,1.7-1.6,3.1-3.5,3.1s-3.5-1.4-3.5-3.1v-6.4C2.7,35.7,1,23,1,23s3.8-6.7,4.1-8.5
	c0.3-1.8,0.3-4.7,0.7-5c3.1,2.7,2.4,7.3,2.4,10.2c0,5.4,4.4,5.3,4.4,5.3c5.5-6.5-0.9-11.7-0.9-11.7C11.7-0.3,20-6,20-6
	s8.3,5.7,8.3,19.4c0,0-6.3,5.2-0.9,11.7c0,0,4.4,0.1,4.4-5.3c0-3-0.7-7.5,2.4-10.2c0.5,0.3,0.5,3.2,0.7,5C35.2,16.3,39,23,39,23z"/>
</svg>
